<?xml version="1.0" encoding="utf-8"?>
<!-- Generator: Adobe Illustrator 19.0.0, SVG Export Plug-In . SVG Version: 6.00 Build 0)  -->
<svg version="1.1" id="Layer_1" xmlns="http://www.w3.org/2000/svg" xmlns:xlink="http://www.w3.org/1999/xlink" x="0px" y="0px"
	 viewBox="0 0 393.7 393.8" style="enable-background:new 0 0 393.7 393.8;" xml:space="preserve">
<style type="text/css">
	.st0{fill:none;}
	.st1{fill:#4ABCAB;}
	.st2{fill:#707070;}
</style>
<path id="XMLID_2_" class="st0" d="M196.6,57c-28,0-54,7.5-75.4,20.3C142.5,64.5,168.5,57,196.6,57c50.7,0,94.7,24.2,116.5,60.2
	C291.3,81.1,247.3,57,196.6,57z"/>
<path id="XMLID_14_" class="st0" d="M65.3,168.7c0,0.2,0,0.4,0,0.4C65.3,169.1,65.3,168.8,65.3,168.7
	C65.3,168.7,65.3,168.6,65.3,168.7C65.3,168.6,65.3,168.7,65.3,168.7C65.3,168.7,65.3,168.7,65.3,168.7z"/>
<path id="XMLID_15_" class="st0" d="M77.1,178.1H77C77,178.1,77.1,178.3,77.1,178.1z"/>
<path id="XMLID_16_" class="st0" d="M76.3,179.9c0.1-0.3,0.3-0.5,0.4-0.8C76.6,179.4,76.5,179.6,76.3,179.9z"/>
<path id="XMLID_19_" class="st1" d="M360.3,169.1h-32.5H310h-48.7H83.1H65.3c0,0,0-0.3,0-0.4c0,0,0,0,0,0c0,0,0,0,0,0
	c0-37.8,22.1-71.2,55.9-91.4C142.5,64.5,168.5,57,196.6,57c50.7,0,94.7,24.2,116.5,60.2h63.8C346.3,48.1,277.2,0,196.8,0
	C88.1,0,0,88.1,0,196.8c0,8.3,0.5,16.4,1.5,24.4h8.6h0.3h55h15.5h47.4h0.1h40v56.7v42.3h57v-42.4v-56.6h87h15.5c0,0,0,0.4,0,0.5
	c0,0.9,0,1.8,0,2.7c-1.8,56.4-59.9,101.8-131.2,101.8c-49.5,0-92.6-21.8-115-54H14.9c29.5,71.4,99.9,121.7,182,121.7
	c108.7,0,196.8-88.2,196.8-196.9c0-9.4-0.7-18.8-2-27.8h-31H360.3z M317.3,180.8v29.3h-92h-0.3h-12.7v11v58.4v30.6h-32v-30.6v-58.4
	v-11h-11.7h-0.3h-92v-30.2v-1.4v-0.4H77h0.1h239h1.3V180.8z"/>
<path id="XMLID_22_" class="st2" d="M77.1,178.1c0,0.1-0.1,0-0.1,0h-0.7v0.4v1.4c0.1-0.3,0.3-0.5,0.4-0.8c-0.1,0.3-0.3,0.5-0.4,0.8
	v30.2h92h0.3h11.7v11v58.4v30.6h32v-30.6v-58.4v-11h12.7h0.3h92v-29.3v-2.7h-1.3H77.1z"/>
</svg>
