<?xml version="1.0" encoding="utf-8"?>
<!-- Generator: Adobe Illustrator 19.0.0, SVG Export Plug-In . SVG Version: 6.00 Build 0)  -->
<svg version="1.1" id="Layer_1" xmlns="http://www.w3.org/2000/svg" xmlns:xlink="http://www.w3.org/1999/xlink" x="0px" y="0px"
	 viewBox="0 0 960 560" style="enable-background:new 0 0 960 560;" xml:space="preserve">
<style type="text/css">
	.st0{fill:#4ABCAB;}
	.st1{fill:#707070;}
	.st2{fill:#FFFFFF;}
</style>
<path class="st0" d="M480,31c-137.5,0-249,111.5-249,249c0,137.5,111.5,249,249,249c137.5,0,249-111.5,249-249
	C729,142.5,617.5,31,480,31z M480,523c-134.2,0-243-108.8-243-243c0-134.2,108.8-243,243-243c134.2,0,243,108.8,243,243
	C723,414.2,614.2,523,480,523z"/>
<g>
	<path class="st1" d="M480,44c-130.3,0-236,105.7-236,236s105.7,236,236,236s236-105.7,236-236S610.3,44,480,44z M661.4,168
		c12.7,21.2,21.8,44.3,26.6,69h-46.7c-7-26.1-20.2-49.6-37.9-69H661.4z M480,68.3c67.1,0,126.9,30.5,165.7,79.7h-64.1
		c-22.4-17.2-49.3-28.8-78.7-32.8V426h-46V115.3c-29.1,4.1-55.8,15.6-78,32.7h-64.7C353.1,98.8,412.9,68.3,480,68.3z M268,277.8
		c0-40.2,11.2-77.3,30.6-109.8h58.6c-22.1,24.2-37.2,55-41.9,89H450v46H269.5C268.5,294.7,268,286.3,268,277.8z M480,489.9
		c-101.6,0-186.5-71.5-207.2-166.9h46.4C338,394.4,403,447,480.3,447c84.4,0,154.1-62.7,165.1-144H510v-46h181
		c0.7,6.8,1,13.8,1,20.8C692,394.9,597.1,489.9,480,489.9z"/>
	<path class="st1" d="M688,237h-46.7c-7-26.1-20.2-49.6-37.9-69h58C674.1,189.2,683.2,212.3,688,237z"/>
</g>
<g>
	<g>
		<path class="st2" d="M450,257v46H269.5c-1-8.3-1.5-16.7-1.5-25.2c0-40.2,11.2-77.3,30.6-109.8h58.6c-22.1,24.2-37.2,55-41.9,89
			H450z"/>
		<path class="st2" d="M688,237h-46.7c-7-26.1-20.2-49.6-37.9-69h58C674.1,189.2,683.2,212.3,688,237z"/>
	</g>
</g>
<g>
	<path class="st0" d="M645.7,148h-64.1c-22.4-17.2-49.3-28.8-78.7-32.8V426h-46V115.3c-29.1,4.1-55.8,15.6-78,32.7h-64.7
		c38.8-49.2,98.6-79.7,165.7-79.7S606.9,98.8,645.7,148z"/>
</g>
<g>
	<path class="st2" d="M692,277.8c0,117.1-94.9,212.1-212,212.1c-101.6,0-186.5-71.5-207.2-166.9h46.4C338,394.4,403,447,480.3,447
		c84.4,0,154.1-62.7,165.1-144H510v-46h181C691.7,263.8,692,270.8,692,277.8z"/>
</g>
</svg>
